<?xml version="1.0" encoding="UTF-8"?><svg id="Calque_2" xmlns="http://www.w3.org/2000/svg" xmlns:xlink="http://www.w3.org/1999/xlink" viewBox="0 0 217.74 208.31"><defs><style>.cls-1{fill:url(#Dégradé_sans_nom_7);}.cls-1,.cls-2,.cls-3,.cls-4,.cls-5{stroke-width:0px;}.cls-2{fill:url(#Dégradé_sans_nom_5-4);}.cls-3{fill:url(#Dégradé_sans_nom_5-3);}.cls-4{fill:url(#Dégradé_sans_nom_5-2);}.cls-5{fill:url(#Dégradé_sans_nom_5);}</style><linearGradient id="Dégradé_sans_nom_7" x1="-3.68" y1="113.38" x2="182.82" y2="113.38" gradientUnits="userSpaceOnUse"><stop offset="0" stop-color="#18b2e9"/><stop offset="1" stop-color="#432777"/></linearGradient><linearGradient id="Dégradé_sans_nom_5" x1="67.32" y1="84.99" x2="67.33" y2="84.99" gradientUnits="userSpaceOnUse"><stop offset="0" stop-color="#18b2e9"/><stop offset="1" stop-color="#432777"/></linearGradient><linearGradient id="Dégradé_sans_nom_5-2" x1="68.11" y1="85.17" x2="68.2" y2="85.17" xlink:href="#Dégradé_sans_nom_5"/><linearGradient id="Dégradé_sans_nom_5-3" x1="7.08" y1="171.53" x2="219.1" y2="171.53" xlink:href="#Dégradé_sans_nom_5"/><linearGradient id="Dégradé_sans_nom_5-4" x1="0" y1="104.15" x2="217.74" y2="104.15" xlink:href="#Dégradé_sans_nom_5"/></defs><g id="Calque_1-2"><path class="cls-1" d="m29.25,116.29l12.81,12.49c.99-1.74,2.35-4.01,4.48-5.42-.16-.08-.24-.15-.21-.19.13-.42,1.42-1.95,2.06-3.04.18-.43.33-.78.44-1.11.58-2.33.48-2.78.75-4.82.01-.1.04-.29.07-.63.01-.1.02-.2.03-.31.14-1.38.4-4.61.83-12.27.03-.61.07-1.52-.5-2.2-.26-.31-.62-.53-1.38-.66-.04,0-.08-.01-.12-.02-.03,0-.07,0-.1-.01-.42-.04-1.06-.07-1.82-.09-.56,0-1.21.02-1.99.05-.96.04-2.1.12-3.38.23-.63.08-1.39.17-2.32.26-1.76.18-3.24.3-4.31.38-.22.4-.4.79-.6,1.18-1.21,2.45-2.46,5.48-3.42,9.04-.19.74-.34,1.44-.46,2.07-.44,2.3-.7,3.96-.86,5.08Z"/><polygon class="cls-5" points="67.33 84.99 67.33 84.98 67.32 84.99 67.33 84.99"/><path class="cls-4" d="m68.11,85.15s.06.02.08.03c-.03-.01-.06-.02-.08-.03Z"/><path class="cls-3" d="m43.65,180.85c.55-.19,1.06-.33,2.08-.59l1-.07h0c1.8-.98,3.09-1.88,3.92-2.4.18-.15.37-.3.57-.46,1.64-1.34,2.96-2.55,4.12-3.68,1.49-1.6,4.06-4.33,4.62-4.81.17-.14.32-.28.48-.42,1.04-1.04,2.19-2.11,3.59-3.27.52-.43,1.21-.99,2.03-1.61.36-.28.72-.55,1.09-.8.2-.14.41-.29.62-.43-2.43-.51-3.72-.77-6.16-1.28.08-.07.16-.13.24-.19-.05-.01-.1-.02-.15-.04-1.09.64-2.14,1.25-3.04,1.85-.58-.47-2.92-1.76-5.02-3.02-1.5,1.75-3.13,3.26-5.55,6.14-1.36,1.62-2.39,2.98-2.96,3.76-.68-.28-1.39-.6-2.12-.94,0,0,0,0,0,0h0c-.64.68-1.34,1.39-2.09,2.11l-2.18,12.73c.26-.19.69-.46,1.45-.89,1.51-.85,2.28-1.28,3.46-1.69Z"/><path class="cls-2" d="m207.01,70.12l-53.54-7.78c-4.08-.59-7.6-3.15-9.42-6.85L120.09,6.98c-4.59-9.3-17.86-9.3-22.45,0l-23.94,48.52c-1.82,3.69-5.35,6.25-9.42,6.85l-53.54,7.78c-10.27,1.49-14.37,14.11-6.94,21.35l20.35,19.83c.16-7.25.15-8.42.34-10.3.46-4.6.77-7.24,2.87-8.99.2-.16,2.25-.93,6.34-2.45,1.23-.46,2.85-1.04,4.99-1.08.31,0,.6,0,.89.01-.02-.06-.03-.13-.05-.2,1.14-.08,2.94-.25,5.11-.71,2.48-.52,3.01-.9,5.26-1.32.58-.11,2.95-.54,6.04-.55,3.52,0,4.54.53,6.53-.17,1.16-.4,3.14-.76,4.52-.65.25.02.35.04.37.06.07-.36.39.01.75.17-1.64-.79-2.61-4.58-2.72-5.69-.15-1.56-.04-2.13-.08-3.14-.14-3.18-.85-3.06-.66-5.16.15-1.75,4.55-4.9,7.82-4.53,6.41.72,8.69-2.75,11.18-2.37,1.07.17,1.59.63,1.94,1.1,1.24,1.68.09,4.87-1.61,7.09.23.83.29,1.99.44,3.67.08.91.07,1.62.04,3.03-.05,2.94-.09,4.45-.62,6.18-.46,1.5-.77,2.5-1.75,3.18-1.75,1.22-4.11.33-4.52.17,0,.04-.02.09-.03.14-.08.39-.2.98-.39,1.65.02-.06.04-.12.06-.18.05-.23,1.1,2.42,1.27,2.71,1.09,1.87,3.27,1.28,5.14,2.9,1.93,1.68,2.24,4.62,2.41,6.14.2,1.87-.17,2.57.44,4.2.45,1.19.92,1.56,1.6,3.02.65,1.39.95,2.64,1.1,3.48-.06.07-.13.14-.19.2.13.14.24.27.34.38.31.35.54.67.69.88.51-.8,1.25-1.94,2.17-3.3.91-1.34,1.11-1.59,1.45-2.24.19-.37.9-1.75,1.34-3.9.08-.42.19-1.03.35-4.13.2-3.85.11-4.32.58-5.31.04-.09.84-1.73,2.61-2.74.24-.13,1.49-.85,1.99-.43.25.21.09.53.39.81.44.4,1.07-.03,1.47.36.17.16.11.28.27,1.04.07.32.19.89.42,1.47.03.08.06.14.09.2.23.53.41.52.49.87,0,0,0,0,0,.01.03.07.05.14.07.24.08.46-.03.72-.02.98,0,.02,0,.03,0,.05,0,.04.02.08.03.12.02.08.05.16.1.23.01.02.02.03.03.04.06.07.13.14.2.2.17.11.34.17.45.39.03.05.04.1.05.16,0,0,0,0,0,0,.01.06.01.12,0,.19,0,.03,0,.05-.01.08,0,.02,0,.04-.01.06-.09.49-.5,1.3-1.48,2.75,0,0,0,0,0,0-.39.65-.65,1.02-.85,1.19-.04.03-.07.05-.11.08-.05.04-.11.08-.17.12,0,0,0,0,0,0,0,0,0,0,0,0,0,0,0,0,0,0-.44.28-.8.37-1.13.6-.02.01-.04.03-.05.04-.04.03-.08.06-.12.1-.13.13-.34.37-.56.82-.15.35-.2.66-.22.83-.08.5-.18,1-.29,1.49,0,0,0,.02,0,.02-.01.42-.05.53-.58,2.17-.21.68-.43,1.36-.65,2.04,0,.02-.01.04-.02.05-.42,1.35-.79,2.5-1.15,3.73-.02.09-.05.18-.07.27-.48,1.86-.88,3.26-1.28,4.41,0,.02-.02.05-.02.07-.02.06-.04.13-.06.19-.05.13-.1.27-.15.41-.02.05-.04.09-.05.14-.03.08-.06.17-.1.25-.02.05-.04.11-.06.16,0,0,0,.01,0,.02,0,0,0,0,0,.01-.41,1.02-.85,1.83-1.38,2.66-.08.13-.17.25-.25.38,0,0,0,.01,0,.02-.18.37-.63,1.15-1.54,1.69,0,0,0,0-.01,0,0,0,0,0-.01,0,0,0,0,0,0,0-.37.26-.77.44-1.21.53-.7.14-1.38.04-1.97-.15-.02,0-.06-.01-.08-.02-.06-.01-.1-.04-.15-.06-.09-.03-.18-.07-.27-.1-.25-.09-.49-.21-.71-.34-.27-.15-.48-.29-.6-.38-.69-.49-1.1-1.01-1.31-1.29-.06-.08-.12-.15-.18-.24,0,0,0,0,0,0-.73-.78-1.86-2.24-2.77-3.89,0,0,0,0,0,0-.02.03-.05.05-.05.05,0,0-.39-.43-.88-1.15-1.04-1.44-2.11-3.21-3-5.34-.43-1.04-.77-2.04-1.03-2.98-.22.82-.56,1.98-1.01,3.36-1.09,3.28-2.27,5.94-3.35,8.12-1.6,3.39-2.81,5.26-2.8,5.27,0,0,0,0,0,0-1.19,2.09-2.66,4.47-4.46,7.03-1.57,1.92-.91,1.47-2.49,3.4,1.26.66,11.4,7.98,12.92,9.81-.17.31-.35.61-.53.9,5.3,3.76,7.05,6.03,8.24,8.22,1.09,2.02,2.16,4.05,1.81,6.58-.53,3.89-4.04,6.22-8.55,9.12-5.7,3.67-8.87,4.16-17.87,8.61-1.36.67-2.59,1.3-3.66,1.87-.99.67-2.72,1.87-3.27,2.45-.96,1.02-1.24,1.98-1.65,2.66.31.3.61.64.73,1.11.31,1.2-.77,2.07-1.77,3.79-.47.82-1.78,3.08-1.71,5.69.05,1.81.73,2.65.26,4.54-.17.68-.38,1.48-1.03,1.83-1.15.61-2.85-.63-3.67-1.22-2.96-2.14-4.08-5.2-4.26-5.71-.72-2.05-.02-1.71-.95-6.53-.31-1.63-.43-3.3-.69-4.94l-1.14,6.64c-1.75,10.23,8.98,18.02,18.16,13.2l47.89-25.18c3.65-1.92,8-1.92,11.65,0l47.89,25.18c9.18,4.83,19.92-2.97,18.16-13.2l-9.15-53.33c-.7-4.06.65-8.2,3.6-11.08l38.75-37.77c7.43-7.24,3.33-19.86-6.94-21.35Z"/></g></svg>