<svg xmlns="http://www.w3.org/2000/svg" width="40" zoomAndPan="magnify"
     viewBox="0 0 30 30.000001" height="40" preserveAspectRatio="xMidYMid meet" version="1.0">
    <defs>
        <clipPath id="5855f991de">
            <path d="M 5.382812 5.355469 L 24.980469 5.355469 L 24.980469 23.5 L 5.382812 23.5 Z M 5.382812 5.355469 "
                  clip-rule="nonzero"/>
        </clipPath>
        <clipPath id="4340cf78c6">
            <path d="M 13.320312 21.074219 L 16.699219 21.074219 L 16.699219 22.492188 L 13.320312 22.492188 Z M 13.320312 21.074219 "
                  clip-rule="nonzero"/>
        </clipPath>
        <clipPath id="c6c2dca78b">
            <path d="M 13 6.527344 L 17 6.527344 L 17 9 L 13 9 Z M 13 6.527344 " clip-rule="nonzero"/>
        </clipPath>
        <clipPath id="44483edb2d">
            <path d="M 5.164062 9 L 8 9 L 8 18 L 5.164062 18 Z M 5.164062 9 " clip-rule="nonzero"/>
        </clipPath>
        <clipPath id="ffe28d40cd">
            <path d="M 22.757812 10.019531 L 24.761719 10.019531 L 24.761719 17.183594 L 22.757812 17.183594 Z M 22.757812 10.019531 "
                  clip-rule="nonzero"/>
        </clipPath>
    </defs>
    <g clip-path="url(#4340cf78c6)">
        <path fill="#ff9933"
              d="M 16.085938 21.089844 L 13.351562 21.089844 C 13.484375 21.890625 14.179688 22.5 15.015625 22.5 C 15.851562 22.5 16.546875 21.890625 16.683594 21.089844 L 16.085938 21.089844 "
              fill-opacity="1" fill-rule="nonzero"/>
    </g>
    <g clip-path="url(#c6c2dca78b)">
        <path fill="#ff9933"
              d="M 14.035156 8.003906 C 14.355469 7.9375 14.679688 7.902344 15.015625 7.902344 C 15.351562 7.902344 15.679688 7.9375 15.996094 8.003906 C 16.097656 8.023438 16.199219 8.050781 16.300781 8.078125 C 16.398438 8.105469 16.5 8.132812 16.597656 8.167969 C 16.578125 7.261719 15.878906 6.53125 15.015625 6.53125 C 14.15625 6.53125 13.453125 7.261719 13.4375 8.167969 C 13.535156 8.132812 13.632812 8.105469 13.734375 8.078125 C 13.832031 8.050781 13.933594 8.023438 14.035156 8.003906 "
              fill-opacity="1" fill-rule="nonzero"/>
    </g>
    <path fill="#ff9933"
          d="M 20.886719 18.890625 C 20.5 18.523438 20.097656 18.148438 19.777344 17.628906 C 19.257812 16.785156 19.578125 13.683594 19.589844 13.597656 L 19.585938 13.574219 L 19.585938 13.546875 C 19.585938 13.492188 19.589844 13.4375 19.589844 13.386719 C 19.589844 11.269531 18.328125 9.460938 16.566406 8.777344 C 16.472656 8.742188 16.375 8.707031 16.277344 8.675781 C 16.183594 8.648438 16.085938 8.621094 15.988281 8.597656 C 15.675781 8.527344 15.347656 8.488281 15.015625 8.488281 C 14.683594 8.488281 14.359375 8.527344 14.046875 8.597656 C 13.949219 8.621094 13.851562 8.648438 13.753906 8.675781 C 13.65625 8.707031 13.5625 8.742188 13.464844 8.777344 C 11.707031 9.460938 10.445312 11.269531 10.445312 13.386719 C 10.445312 13.4375 10.445312 13.492188 10.449219 13.546875 L 10.449219 13.574219 L 10.445312 13.597656 C 10.453125 13.6875 10.777344 16.785156 10.253906 17.628906 C 9.933594 18.148438 9.535156 18.523438 9.148438 18.890625 C 8.957031 19.070312 8.734375 19.429688 8.585938 19.804688 C 8.4375 20.175781 8.417969 20.414062 8.429688 20.507812 L 21.632812 20.507812 C 21.648438 20.421875 21.628906 20.1875 21.46875 19.804688 C 21.3125 19.433594 21.082031 19.074219 20.886719 18.890625 "
          fill-opacity="1" fill-rule="nonzero"/>
    <path fill="#ff9933"
          d="M 8.730469 16.210938 C 8.945312 16.058594 8.996094 15.757812 8.84375 15.539062 C 8.449219 14.988281 8.242188 14.339844 8.242188 13.660156 C 8.242188 13.011719 8.433594 12.386719 8.792969 11.851562 C 8.941406 11.632812 8.882812 11.332031 8.660156 11.183594 C 8.441406 11.035156 8.140625 11.09375 7.992188 11.316406 C 7.527344 12.007812 7.28125 12.820312 7.28125 13.660156 C 7.28125 14.539062 7.550781 15.382812 8.058594 16.097656 C 8.152344 16.230469 8.300781 16.300781 8.449219 16.300781 C 8.546875 16.300781 8.644531 16.269531 8.730469 16.210938 "
          fill-opacity="1" fill-rule="nonzero"/>
    <g clip-path="url(#44483edb2d)">
        <path fill="#ff9933"
              d="M 6.332031 13.660156 C 6.332031 12.660156 6.617188 11.691406 7.160156 10.859375 C 7.335938 10.589844 7.257812 10.226562 6.988281 10.054688 C 6.714844 9.878906 6.355469 9.953125 6.179688 10.226562 C 5.515625 11.246094 5.164062 12.4375 5.164062 13.660156 C 5.164062 15.007812 5.582031 16.292969 6.375 17.378906 C 6.488281 17.535156 6.667969 17.617188 6.847656 17.617188 C 6.964844 17.617188 7.085938 17.582031 7.191406 17.507812 C 7.449219 17.316406 7.507812 16.953125 7.316406 16.691406 C 6.671875 15.808594 6.332031 14.757812 6.332031 13.660156 "
              fill-opacity="1" fill-rule="nonzero"/>
    </g>
    <path fill="#ff9933"
          d="M 21.300781 11.140625 C 21.082031 11.292969 21.027344 11.59375 21.179688 11.8125 C 21.554688 12.355469 21.753906 12.992188 21.753906 13.65625 C 21.753906 14.300781 21.566406 14.925781 21.210938 15.457031 C 21.0625 15.679688 21.121094 15.980469 21.339844 16.125 C 21.421875 16.183594 21.515625 16.207031 21.609375 16.207031 C 21.765625 16.207031 21.917969 16.132812 22.007812 15.996094 C 22.472656 15.300781 22.71875 14.492188 22.71875 13.65625 C 22.71875 12.796875 22.460938 11.96875 21.96875 11.261719 C 21.820312 11.042969 21.519531 10.988281 21.300781 11.140625 "
          fill-opacity="1" fill-rule="nonzero"/>
    <g clip-path="url(#ffe28d40cd)">
        <path fill="#ff9933"
              d="M 23.875 10.308594 C 23.703125 10.035156 23.34375 9.953125 23.070312 10.125 C 22.796875 10.292969 22.714844 10.65625 22.882812 10.925781 C 23.394531 11.746094 23.664062 12.6875 23.664062 13.65625 C 23.664062 14.578125 23.417969 15.480469 22.953125 16.269531 C 22.792969 16.546875 22.882812 16.90625 23.160156 17.070312 C 23.253906 17.125 23.355469 17.148438 23.457031 17.148438 C 23.65625 17.148438 23.851562 17.046875 23.960938 16.863281 C 24.53125 15.894531 24.832031 14.785156 24.832031 13.65625 C 24.832031 12.46875 24.5 11.3125 23.875 10.308594 "
              fill-opacity="1" fill-rule="nonzero"/>
    </g>
</svg>