<svg xmlns="http://www.w3.org/2000/svg" width="30" height="30" viewBox="0 0 30 30">
    <path id="Icon_awesome-newspaper" data-name="Icon awesome-newspaper"
          d="M28.75,4.5H4.583c-.69,0-1.25.839-1.25,1.875V7H1.25C.56,7,0,7.839,0,8.875v21.25C0,32.541,1.306,34.5,2.917,34.5H27.5c1.381,0,2.5-1.679,2.5-3.75V6.375C30,5.339,29.44,4.5,28.75,4.5ZM2.917,30.75c-.23,0-.417-.28-.417-.625V10.75h.833V30.125C3.333,30.47,3.147,30.75,2.917,30.75ZM15.208,29.5H7.292c-.345,0-.625-.42-.625-.937v-.625c0-.518.28-.937.625-.937h7.917c.345,0,.625.42.625.938v.625C15.833,29.08,15.553,29.5,15.208,29.5Zm10.833,0H18.125c-.345,0-.625-.42-.625-.937v-.625c0-.518.28-.937.625-.937h7.917c.345,0,.625.42.625.938v.625C26.667,29.08,26.387,29.5,26.042,29.5ZM15.208,22H7.292c-.345,0-.625-.42-.625-.937v-.625c0-.518.28-.938.625-.938h7.917c.345,0,.625.42.625.938v.625C15.833,21.58,15.553,22,15.208,22Zm10.833,0H18.125c-.345,0-.625-.42-.625-.937v-.625c0-.518.28-.938.625-.938h7.917c.345,0,.625.42.625.938v.625C26.667,21.58,26.387,22,26.042,22Zm0-7.5H7.292c-.345,0-.625-.42-.625-.937V10.438c0-.518.28-.938.625-.938h18.75c.345,0,.625.42.625.938v3.125C26.667,14.08,26.387,14.5,26.042,14.5Z"
          transform="translate(0 -4.5)" fill="#434343"/>
</svg>
