<svg xmlns="http://www.w3.org/2000/svg" width="40" zoomAndPan="magnify"
     viewBox="0 0 30 30.000001" height="40" preserveAspectRatio="xMidYMid meet" version="1.0">
    <defs>
        <clipPath id="f9580692a3">
            <path d="M 5.382812 5.355469 L 24.980469 5.355469 L 24.980469 23.5 L 5.382812 23.5 Z M 5.382812 5.355469 "
                  clip-rule="nonzero"/>
        </clipPath>
    </defs>
    <g clip-path="url(#f9580692a3)">
        <path fill="#ffcc00"
              d="M 15.023438 5.417969 L 17.988281 11.421875 L 24.617188 12.386719 L 19.816406 17.066406 L 20.953125 23.667969 L 15.023438 20.550781 L 9.089844 23.667969 L 10.222656 17.066406 L 5.429688 12.386719 L 12.058594 11.421875 Z M 15.023438 5.417969 "
              fill-opacity="1" fill-rule="nonzero"/>
        <path fill="#ffcc00"
              d="M 14.976562 5.359375 L 17.945312 11.367188 L 24.574219 12.328125 L 19.777344 17.007812 L 20.910156 23.609375 L 14.976562 20.492188 L 9.046875 23.609375 L 10.179688 17.007812 L 5.382812 12.328125 L 12.011719 11.367188 Z M 14.976562 5.359375 "
              fill-opacity="1" fill-rule="nonzero"/>
        <path fill="#ffcc00"
              d="M 14.976562 5.359375 L 17.945312 11.367188 L 24.574219 12.328125 L 19.777344 17.007812 L 20.910156 23.609375 L 14.976562 20.492188 L 9.046875 23.609375 L 10.179688 17.007812 L 5.382812 12.328125 L 12.011719 11.367188 Z M 14.976562 5.359375 "
              fill-opacity="1" fill-rule="nonzero"/>
        <path fill="#ffcc00"
              d="M 14.976562 5.359375 L 17.945312 11.367188 L 24.574219 12.328125 L 19.777344 17.007812 L 20.910156 23.609375 L 14.976562 20.492188 L 9.046875 23.609375 L 10.179688 17.007812 L 5.382812 12.328125 L 12.011719 11.367188 Z M 14.976562 5.359375 "
              fill-opacity="1" fill-rule="nonzero"/>
    </g>
</svg>