<svg xmlns="http://www.w3.org/2000/svg" width="40" zoomAndPan="magnify"
     viewBox="0 0 30 30.000001" height="40" preserveAspectRatio="xMidYMid meet" version="1.0">
    <defs>
        <clipPath id="d2e111a9a4">
            <path d="M 5.382812 5.355469 L 24.980469 5.355469 L 24.980469 23.5 L 5.382812 23.5 Z M 5.382812 5.355469 "
                  clip-rule="nonzero"/>
        </clipPath>
        <clipPath id="70d3ae7679">
            <path d="M 6.582031 6.097656 L 23.273438 6.097656 L 23.273438 22.789062 L 6.582031 22.789062 Z M 6.582031 6.097656 "
                  clip-rule="nonzero"/>
        </clipPath>
    </defs>
    <g clip-path="url(#70d3ae7679)">
        <path fill="#005fab"
              d="M 14.9375 11.3125 C 16.6875 11.277344 18.128906 12.671875 18.164062 14.421875 C 18.164062 14.453125 18.164062 14.480469 18.164062 14.511719 C 18.183594 16.261719 16.78125 17.695312 15.03125 17.714844 C 13.28125 17.734375 11.847656 16.335938 11.828125 14.585938 C 11.828125 14.5625 11.828125 14.535156 11.828125 14.511719 C 11.808594 12.773438 13.195312 11.34375 14.9375 11.3125 Z M 15.277344 6.105469 C 14.804688 6.085938 14.332031 6.113281 13.863281 6.175781 C 13.695312 6.195312 13.5625 6.3125 13.511719 6.472656 L 13.046875 7.988281 C 13.003906 8.117188 12.90625 8.222656 12.78125 8.265625 C 12.558594 8.34375 12.34375 8.433594 12.132812 8.535156 C 12.011719 8.59375 11.867188 8.589844 11.75 8.527344 L 10.347656 7.78125 C 10.199219 7.703125 10.019531 7.71875 9.886719 7.820312 C 9.289062 8.277344 8.753906 8.8125 8.296875 9.414062 C 8.195312 9.546875 8.179688 9.722656 8.257812 9.871094 L 9.003906 11.273438 C 9.066406 11.390625 9.074219 11.535156 9.015625 11.65625 C 8.914062 11.867188 8.828125 12.082031 8.75 12.304688 C 8.703125 12.433594 8.601562 12.53125 8.46875 12.570312 L 6.953125 13.035156 C 6.792969 13.085938 6.679688 13.222656 6.65625 13.386719 C 6.554688 14.136719 6.554688 14.890625 6.65625 15.640625 C 6.679688 15.804688 6.792969 15.941406 6.953125 15.988281 L 8.46875 16.457031 C 8.601562 16.496094 8.703125 16.59375 8.75 16.722656 C 8.828125 16.941406 8.914062 17.15625 9.015625 17.367188 C 9.074219 17.492188 9.066406 17.632812 9.003906 17.753906 L 8.257812 19.15625 C 8.179688 19.300781 8.195312 19.480469 8.296875 19.613281 C 8.753906 20.214844 9.289062 20.746094 9.886719 21.207031 C 10.019531 21.308594 10.199219 21.320312 10.347656 21.242188 L 11.75 20.5 C 11.867188 20.4375 12.011719 20.433594 12.132812 20.492188 C 12.34375 20.589844 12.558594 20.679688 12.78125 20.757812 C 12.90625 20.804688 13.003906 20.90625 13.046875 21.035156 L 13.511719 22.554688 C 13.5625 22.710938 13.695312 22.828125 13.863281 22.851562 C 14.609375 22.953125 15.367188 22.953125 16.113281 22.851562 C 16.277344 22.828125 16.417969 22.710938 16.464844 22.554688 L 16.933594 21.035156 C 16.972656 20.90625 17.070312 20.804688 17.199219 20.757812 C 17.417969 20.679688 17.632812 20.589844 17.84375 20.492188 C 17.964844 20.433594 18.109375 20.4375 18.226562 20.5 L 19.628906 21.242188 C 19.777344 21.320312 19.957031 21.308594 20.089844 21.207031 C 20.691406 20.746094 21.222656 20.214844 21.679688 19.613281 C 21.78125 19.480469 21.796875 19.300781 21.71875 19.15625 L 20.976562 17.753906 C 20.910156 17.632812 20.90625 17.492188 20.960938 17.367188 C 21.0625 17.15625 21.152344 16.941406 21.230469 16.722656 C 21.273438 16.59375 21.375 16.496094 21.507812 16.457031 L 23.023438 15.988281 C 23.183594 15.941406 23.300781 15.804688 23.320312 15.640625 C 23.421875 14.890625 23.421875 14.136719 23.320312 13.386719 C 23.300781 13.222656 23.183594 13.085938 23.023438 13.035156 L 21.507812 12.570312 C 21.375 12.53125 21.273438 12.433594 21.230469 12.304688 C 21.152344 12.082031 21.0625 11.867188 20.960938 11.65625 C 20.90625 11.535156 20.910156 11.390625 20.976562 11.273438 L 21.71875 9.871094 C 21.796875 9.722656 21.78125 9.546875 21.679688 9.414062 C 21.222656 8.8125 20.691406 8.277344 20.089844 7.820312 C 19.957031 7.71875 19.777344 7.703125 19.628906 7.78125 L 18.226562 8.527344 C 18.109375 8.589844 17.964844 8.59375 17.84375 8.535156 C 17.632812 8.433594 17.417969 8.34375 17.199219 8.269531 C 17.070312 8.222656 16.972656 8.121094 16.933594 7.988281 L 16.464844 6.472656 C 16.417969 6.3125 16.277344 6.195312 16.113281 6.175781 C 15.835938 6.136719 15.558594 6.113281 15.277344 6.105469 "
              fill-opacity="1" fill-rule="nonzero"/>
    </g>
</svg>