<?xml version="1.0" encoding="UTF-8"?>
<svg id="Calque_1" data-name="Calque 1" xmlns="http://www.w3.org/2000/svg" viewBox="0 0 129.63 197.09">
  <defs>
    <style>
      .cls-1 {
        fill: #2d74a3;
      }

      .cls-1, .cls-2, .cls-3, .cls-4, .cls-5, .cls-6, .cls-7, .cls-8, .cls-9, .cls-10, .cls-11, .cls-12 {
        stroke-width: 0px;
      }

      .cls-2 {
        fill: #5e9f32;
      }

      .cls-3 {
        fill: #5eb1e3;
      }

      .cls-4 {
        fill: #005fab;
      }

      .cls-5 {
        fill: #95c11f;
      }

      .cls-6 {
        fill: #e4df00;
      }

      .cls-7 {
        fill: #4a79bc;
      }

      .cls-8 {
        fill: #afca0b;
      }

      .cls-9 {
        fill: #0067b1;
      }

      .cls-10 {
        fill: #1db6eb;
      }

      .cls-11 {
        fill: #4b7136;
      }

      .cls-12 {
        fill: #3e9937;
      }
    </style>
  </defs>
  <path class="cls-6" d="m102,1.19h-9.36c-2.88,0-5.22,2.34-5.22,5.22v4.14c0,2.88,2.34,5.22,5.22,5.22h4.14c.75,0,1.47-.16,2.11-.45v-1.57c0-2.36,1.24-4.43,3.11-5.59V1.19Z"/>
  <path class="cls-8" d="m120.41,28.46h-8.14c-2.5,0-4.53,2.03-4.53,4.54v3.6c0,2.5,2.03,4.54,4.53,4.54h3.6c2.51,0,4.54-2.03,4.54-4.54v-8.14Z"/>
  <path class="cls-7" d="m98.65,26.54h-4.76c-1.46,0-2.66,1.19-2.66,2.66v2.11c0,1.47,1.19,2.66,2.66,2.66h2.11c1.46,0,2.66-1.19,2.66-2.66v-4.77Z"/>
  <path class="cls-3" d="m118.02,67.67h-4.76c-1.46,0-2.66,1.19-2.66,2.66v2.11c0,1.46,1.19,2.66,2.66,2.66h2.11c1.46,0,2.66-1.19,2.66-2.66v-4.77Z"/>
  <path class="cls-8" d="m69.49,23.43h-13.17v14.12c0,4.35,3.53,7.87,7.88,7.87h3.84v-2.37c0-2.64,2.15-4.79,4.8-4.79h3.8c.57,0,1.12.1,1.62.29.04-.33.06-.66.06-1v-6.24c0-.57-.06-1.13-.18-1.67h-1.99c-3.54,0-6.43-2.74-6.67-6.21"/>
  <path class="cls-3" d="m117.3,7.17h-11.82c-1.28,0-2.47.36-3.49,1v2.39c0,2.13-1.28,3.96-3.11,4.78v3.65c0,3.64,2.95,6.59,6.59,6.59h5.22c3.64,0,6.59-2.95,6.59-6.59V7.17Z"/>
  <path class="cls-2" d="m102,8.17c-1.87,1.16-3.11,3.23-3.11,5.59v1.57c1.83-.81,3.11-2.64,3.11-4.78v-2.39Z"/>
  <path class="cls-3" d="m115.87,42.09h-15.5c-4.78,0-8.65,3.87-8.65,8.65v6.86c0,2.21.83,4.22,2.19,5.75.5-.13,1.03-.2,1.58-.2h4.89c2.29,0,4.29,1.25,5.35,3.1h1.49c4.78,0,8.65-3.87,8.65-8.65v-15.5Z"/>
  <path class="cls-3" d="m24.87,55.72h-11.36v11.36c0,3.5,2.84,6.34,6.34,6.34h1.56v-2.78c0-3.87,3.15-7.02,7.02-7.02h2.78v-1.56c0-3.49-2.84-6.34-6.33-6.34"/>
  <path class="cls-4" d="m18.11,160.49H7.64v-16.41h10.47c1.13,0,2.19.21,3.13.61.95.4,1.78.96,2.48,1.67.69.7,1.24,1.56,1.63,2.56.39,1.01.59,2.12.59,3.31s-.2,2.31-.59,3.34c-.39,1.01-.94,1.88-1.63,2.6-.7.72-1.53,1.29-2.48,1.7-.95.41-2,.62-3.13.62m10.51-19.12c-1.3-1.3-2.87-2.32-4.66-3.04-1.79-.71-3.75-1.07-5.85-1.07H1.81c-.53,0-.96.43-.96.96v28.16c0,.53.43.96.96.96h16.3c2.11,0,4.09-.4,5.89-1.18,1.79-.79,3.35-1.88,4.64-3.24,1.29-1.36,2.32-3,3.04-4.86.73-1.86,1.09-3.89,1.09-6.04s-.37-4.15-1.09-5.95c-.73-1.8-1.76-3.38-3.06-4.67"/>
  <path class="cls-4" d="m61.02,160.49h-19.33v-16.41h19.3c.53,0,.96-.43.96-.95v-4.92c0-.53-.43-.96-.96-.96h-25.13c-.53,0-.95.43-.95.96v28.16c0,.53.43.96.95.96h25.17c.53,0,.96-.43.96-.96v-4.92c0-.52-.43-.95-.96-.95"/>
  <path class="cls-4" d="m44.33,149.02c-.53,0-.96.43-.96.96v4.14c0,.52.43.95.96.95h15.61c.53,0,.95-.43.95-.95v-4.14c0-.53-.43-.96-.95-.96h-15.61Z"/>
  <path class="cls-4" d="m93.3,140.26c-.97-.96-2.17-1.7-3.57-2.23-1.38-.52-2.96-.78-4.69-.78h-19.79c-.53,0-.96.43-.96.96v28.16c0,.53.43.96.96.96h4.88c.53,0,.96-.43.96-.96v-22.28h13.95c1.48,0,2.59.38,3.38,1.16.79.78,1.16,1.82,1.16,3.19s-.38,2.4-1.17,3.2c-.79.8-1.89,1.19-3.37,1.19h-11.31c-.53,0-.95.43-.95.96v4.76c0,.53.43.96.95.96h11.31c1.74,0,3.32-.28,4.71-.82,1.4-.55,2.6-1.34,3.57-2.34.97-1,1.72-2.2,2.22-3.56.5-1.36.75-2.87.75-4.5s-.25-3.18-.76-4.52c-.51-1.36-1.26-2.54-2.24-3.5"/>
  <path class="cls-4" d="m127.09,151.28c-1.66-1.5-4.07-2.26-7.16-2.26h-12.9c-.84,0-1.47-.2-1.92-.63-.43-.41-.65-1-.65-1.82s.21-1.43.64-1.85c.44-.43,1.08-.64,1.97-.64h20.21c.53,0,.96-.43.96-.96v-4.92c0-.53-.43-.96-.96-.96h-20.21c-1.5,0-2.86.22-4.05.66-1.2.45-2.23,1.06-3.05,1.85-.84.79-1.48,1.75-1.9,2.85-.42,1.07-.63,2.25-.63,3.5s.22,2.48.67,3.57c.45,1.1,1.1,2.06,1.92,2.87.83.8,1.85,1.43,3.04,1.87,1.17.44,2.49.66,3.91.66h12.94c1.07,0,1.89.23,2.42.68.49.42.73,1.08.73,2,0,.84-.25,1.49-.77,1.97-.52.5-1.33.75-2.38.75h-21.11c-.53,0-.96.43-.96.96v4.92c0,.53.43.96.96.96h21.11c1.58,0,2.99-.23,4.19-.68,1.22-.46,2.25-1.11,3.08-1.95.82-.83,1.44-1.83,1.84-2.96.4-1.1.6-2.32.6-3.61,0-3-.85-5.3-2.54-6.83"/>
  <path class="cls-4" d="m87.82,51.17c-13.66,10.89-20.99,28.27-21.44,29.36-.45-1.1-7.65-18.48-21.31-29.36,0,0,28.46,25.11,5.5,77.25h31.75c-22.96-52.14,5.5-77.25,5.5-77.25"/>
  <path class="cls-4" d="m66.25,65.88c4.03,0,7.29-3.26,7.29-7.29s-3.26-7.3-7.29-7.3-7.3,3.27-7.3,7.3,3.26,7.29,7.3,7.29"/>
  <path class="cls-3" d="m43.65,11h-18.42v18.42c0,.57.05,1.13.14,1.67h1.24c4.25,0,7.71,3.45,7.71,7.71v.83c.39.04.79.07,1.19.07h8.15c5.67,0,10.27-4.6,10.27-10.27v-8.15c0-.16,0-.31-.01-.47h-.24c-3.69,0-6.67-2.99-6.67-6.68v-2.57c-1.05-.36-2.17-.56-3.35-.56"/>
  <path class="cls-7" d="m25.37,31.09h-12.57v13.82c0,4.25,3.45,7.71,7.71,7.71h6.11c4.25,0,7.7-3.45,7.7-7.71v-5.28c-4.56-.53-8.22-4.04-8.95-8.54"/>
  <path class="cls-9" d="m26.61,31.09h-1.25c.74,4.5,4.39,8.01,8.95,8.54v-.83c0-4.25-3.45-7.71-7.7-7.71"/>
  <path class="cls-7" d="m81.45,11h-11.97v11.97c0,.16,0,.31.02.46h.95c3.78,0,6.94,2.66,7.7,6.21h3.31c3.69,0,6.67-2.99,6.67-6.67v-5.3c0-3.68-2.99-6.67-6.67-6.67"/>
  <path class="cls-1" d="m70.44,23.43h-.95c.24,3.47,3.13,6.21,6.67,6.21h1.99c-.76-3.55-3.92-6.21-7.7-6.21"/>
  <path class="cls-8" d="m33.99,63.61h-2.78v3.47c0,3.5-2.84,6.33-6.33,6.33h-3.47v2.79c0,3.88,3.15,7.02,7.02,7.02h12.59v-12.59c0-3.87-3.14-7.02-7.02-7.02"/>
  <path class="cls-12" d="m31.21,63.61h-2.78c-3.87,0-7.02,3.15-7.02,7.02v2.78h3.47c3.5,0,6.33-2.84,6.33-6.33v-3.47Z"/>
  <path class="cls-6" d="m78.26,38.55c-.49,3.88-3.8,6.88-7.82,6.88h-2.4v1.43c0,2.65,2.15,4.79,4.8,4.79h8.59v-8.59c0-2.08-1.32-3.85-3.17-4.52"/>
  <path class="cls-5" d="m76.63,38.27h-3.8c-2.65,0-4.8,2.15-4.8,4.8v2.37h2.4c4.02,0,7.33-3,7.82-6.89-.51-.18-1.05-.28-1.62-.28"/>
  <path class="cls-6" d="m17.94,13.15h-9.21v9.21c0,2.83,2.3,5.13,5.13,5.13h4.07c2.84,0,5.14-2.3,5.14-5.13v-4.07c0-2.84-2.3-5.14-5.14-5.14"/>
  <path class="cls-7" d="m46.44,0h-6.14v6.14c0,1.89,1.53,3.42,3.42,3.42h2.71c.19,0,.38-.02.56-.05v-.69c0-2.27,1.13-4.28,2.86-5.48-.04-1.86-1.56-3.35-3.42-3.35"/>
  <path class="cls-6" d="m45.4,42.5h-5.03c-1.55,0-2.81,1.26-2.81,2.81v2.23c0,1.55,1.25,2.81,2.81,2.81h2.23c1.55,0,2.8-1.26,2.8-2.81v-5.04Z"/>
  <path class="cls-6" d="m65.64,2.15h-11.97c-1.42,0-2.73.44-3.81,1.2v2.79c0,1.7-1.24,3.11-2.86,3.38v2.04c3.89,1.34,6.72,4.95,6.91,9.24h5.06c3.69,0,6.68-2.99,6.68-6.68V2.15Z"/>
  <path class="cls-2" d="m47,11.56v2.57c0,3.68,2.99,6.68,6.67,6.68h.24c-.19-4.3-3.02-7.9-6.91-9.24"/>
  <path class="cls-11" d="m49.86,3.35c-1.73,1.21-2.86,3.21-2.86,5.48v.69c1.62-.27,2.86-1.68,2.86-3.38v-2.79"/>
  <path class="cls-8" d="m93.9,63.34c-2.64.7-4.58,3.1-4.58,5.96v4.89c0,3.4,2.76,6.16,6.17,6.16h11.05v-11.05c0-1.12-.29-2.16-.81-3.06h-5.36c-2.57,0-4.88-1.12-6.46-2.9"/>
  <path class="cls-12" d="m100.37,63.14h-4.89c-.54,0-1.08.07-1.58.2,1.59,1.78,3.89,2.9,6.46,2.9h5.37c-1.07-1.85-3.06-3.1-5.36-3.1"/>
  <path class="cls-10" d="m2.61,181.93c.72,0,1.15-.53,1.15-1.32v-4.83c0-.79-.42-1.32-1.15-1.32h-1.06v7.47h1.06Zm-2.32.61v-8.7c0-.36.21-.55.57-.55h1.79c1.46,0,2.37,1.05,2.37,2.51v4.78c0,1.46-.93,2.52-2.37,2.52H.86c-.36,0-.57-.2-.57-.55"/>
  <path class="cls-10" d="m9.46,173.88l-.97,1.29c-.06.08-.14.11-.24.11h-.57c-.15,0-.21-.1-.13-.22l.79-1.28c.04-.08.13-.13.22-.13h.78c.17,0,.21.11.11.23m-1.12,5.29c.63,0,1.01-.4,1.01-.98,0-.67-.39-1.1-1.03-1.1s-1.01.43-1.01,1.1v.98h1.03Zm-2.23,1.75v-2.72c.02-1.32.87-2.24,2.21-2.24,1.31-.01,2.22.91,2.22,2.19s-.89,2.1-2.21,2.1h-1.03v.73c0,.64.37,1.08,1.01,1.08.57,0,.95-.42.99-1.03.01-.13.08-.18.19-.18h.82c.11,0,.18.07.18.18-.07,1.29-.95,2.15-2.2,2.15s-2.2-.91-2.2-2.27"/>
  <path class="cls-10" d="m14.76,178.18c0-.65-.37-1.08-1.01-1.08s-1.02.43-1.02,1.08v2.81c0,.65.39,1.08,1.02,1.08s1.01-.43,1.01-1.08v-2.81Zm1.2.04v2.73c0,1.32-.89,2.26-2.02,2.26-.5,0-.9-.18-1.22-.47v2.92c0,.11-.07.18-.18.18h-.82c-.13,0-.2-.07-.2-.18v-7.43c0-1.32.89-2.26,2.22-2.26s2.21.94,2.21,2.26"/>
  <path class="cls-10" d="m20,181v-1.01h-1c-.65,0-1.04.43-1.04.97,0,.67.39,1.09,1.04,1.09s1-.42,1-1.05m-3.24-.04c0-1.15.89-2.04,2.2-2.04h1.04v-.76c0-.62-.38-1.05-1-1.05-.58,0-.9.39-.94.96-.01.12-.07.16-.19.16h-.81c-.11,0-.18-.08-.18-.2.08-1.21.9-2.06,2.14-2.06,1.32,0,2.17.94,2.17,2.25v2.79c0,1.28-.84,2.2-2.17,2.2s-2.25-.93-2.25-2.24"/>
  <path class="cls-10" d="m22.31,182.86v-4.35c0-1.5.97-2.43,2.37-2.43h.52c.11,0,.18.07.18.2v.75c0,.11-.07.18-.18.18h-.5c-.72,0-1.19.46-1.19,1.21v4.44c0,.13-.07.2-.2.2h-.8c-.13,0-.19-.07-.19-.2"/>
  <path class="cls-10" d="m29.24,182.15v.76c0,.11-.07.18-.2.18h-.21c-1.38,0-2.2-.93-2.2-2.46v-3.44h-.78c-.11,0-.18-.07-.18-.18v-.72c0-.12.07-.18.18-.18h.78v-1.79c0-.12.07-.2.19-.2h.81c.11,0,.18.07.18.2v1.79h1.07c.11,0,.18.06.18.18v.72c0,.11-.07.18-.18.18h-1.07v3.45c0,.88.36,1.32,1.07,1.32h.15c.13,0,.2.07.2.18"/>
  <path class="cls-10" d="m32.12,179.17c.64,0,1.01-.4,1.01-.98,0-.67-.39-1.1-1.03-1.1s-1.01.43-1.01,1.1v.98h1.03Zm-2.22,1.75v-2.72c.01-1.32.87-2.24,2.21-2.24,1.3-.01,2.22.91,2.22,2.19s-.89,2.1-2.2,2.1h-1.03v.73c0,.64.37,1.08,1.01,1.08.57,0,.94-.42.98-1.03.02-.13.09-.18.19-.18h.82c.11,0,.18.07.18.18-.08,1.29-.95,2.15-2.2,2.15-1.31,0-2.2-.91-2.2-2.27"/>
  <path class="cls-10" d="m42.5,178.22v4.64c0,.13-.07.2-.18.2h-.81c-.12,0-.19-.07-.19-.2v-4.68c0-.65-.32-1.08-.9-1.08s-.92.43-.92,1.08v4.68c0,.13-.07.2-.18.2h-.8c-.13,0-.2-.07-.2-.2v-4.68c0-.65-.32-1.08-.9-1.08s-.92.43-.92,1.08v4.68c0,.13-.07.2-.2.2h-.79c-.13,0-.2-.07-.2-.2v-4.64c0-1.32.83-2.26,2.1-2.26.64,0,1.18.35,1.5.85.32-.5.85-.85,1.5-.85,1.26,0,2.08.94,2.08,2.26"/>
  <path class="cls-10" d="m45.85,179.17c.64,0,1.01-.4,1.01-.98,0-.67-.39-1.1-1.03-1.1s-1.01.43-1.01,1.1v.98h1.03Zm-2.22,1.75v-2.72c.01-1.32.87-2.24,2.21-2.24,1.3-.01,2.23.91,2.23,2.19s-.89,2.1-2.21,2.1h-1.03v.73c0,.64.37,1.08,1.01,1.08.57,0,.94-.42.98-1.03.02-.13.09-.18.2-.18h.82c.11,0,.18.07.18.18-.07,1.29-.95,2.15-2.19,2.15-1.31,0-2.2-.91-2.2-2.27"/>
  <path class="cls-10" d="m49.04,182.86v-4.64c0-1.32.87-2.27,2.17-2.27s2.17.95,2.17,2.27v4.64c0,.13-.07.2-.19.2h-.81c-.13,0-.2-.07-.2-.2v-4.68c0-.65-.36-1.09-.97-1.09s-.97.44-.97,1.09v4.68c0,.13-.07.2-.2.2h-.81c-.12,0-.19-.07-.19-.2"/>
  <path class="cls-10" d="m57.6,182.15v.76c0,.11-.07.18-.2.18h-.21c-1.37,0-2.2-.93-2.2-2.46v-3.44h-.78c-.11,0-.18-.07-.18-.18v-.72c0-.12.07-.18.18-.18h.78v-1.79c0-.12.07-.2.19-.2h.81c.11,0,.18.07.18.2v1.79h1.07c.11,0,.18.06.18.18v.72c0,.11-.07.18-.18.18h-1.07v3.45c0,.88.36,1.32,1.07,1.32h.15c.13,0,.2.07.2.18"/>
  <path class="cls-10" d="m64.54,178.18c0-.65-.37-1.08-1.01-1.08s-1.03.43-1.03,1.08v2.8c0,.65.39,1.09,1.03,1.09s1.01-.43,1.01-1.09v-2.8Zm1.19-4.67v7.43c0,1.32-.89,2.27-2.21,2.27s-2.21-.94-2.21-2.27v-2.72c0-1.32.82-2.26,2.07-2.26.49,0,.87.19,1.15.51v-2.96c0-.11.07-.18.2-.18h.81c.12,0,.19.07.19.18"/>
  <path class="cls-10" d="m66.82,173.33h.76c.12,0,.2.08.18.21l-.46,2.36c-.01.11-.08.17-.19.17h-.45c-.11,0-.18-.07-.18-.2l.14-2.36c0-.13.08-.18.19-.18"/>
  <path class="cls-10" d="m68.44,180.6v-4.83c0-1.43.97-2.49,2.37-2.49h1.46c.11,0,.18.07.18.18v.79c0,.12-.07.19-.18.19h-1.36c-.72,0-1.21.55-1.21,1.35v1.76h2.22c.13,0,.2.07.2.19v.75c0,.13-.07.2-.2.2h-2.22v1.88c0,.79.49,1.35,1.21,1.35h1.36c.11,0,.18.07.18.19v.79c0,.11-.07.18-.18.18h-1.46c-1.4,0-2.37-1.05-2.37-2.49"/>
  <path class="cls-10" d="m76.68,178.18c0-.65-.38-1.08-1.02-1.08s-1.03.43-1.03,1.08v2.81c0,.65.39,1.08,1.03,1.08s1.02-.43,1.02-1.08v-2.81Zm1.19.04v2.73c0,1.32-.89,2.26-2.01,2.26-.5,0-.9-.18-1.22-.47v2.92c0,.11-.07.18-.18.18h-.82c-.12,0-.19-.07-.19-.18v-7.43c0-1.32.89-2.26,2.22-2.26s2.21.94,2.21,2.26"/>
  <path class="cls-10" d="m79.11,182.86v-6.57c0-.11.07-.18.19-.18h.81c.12,0,.19.07.19.18v6.57c0,.13-.07.2-.19.2h-.81c-.12,0-.19-.07-.19-.2m-.11-8.33c0-.42.29-.72.71-.72s.72.3.72.72c0,.38-.32.7-.72.7s-.71-.3-.71-.7"/>
  <path class="cls-10" d="m84.61,178.18c0-.65-.37-1.08-1.01-1.08s-1.03.43-1.03,1.08v2.8c0,.65.39,1.09,1.03,1.09s1.01-.43,1.01-1.09v-2.8Zm1.19-4.67v7.43c0,1.32-.89,2.27-2.2,2.27s-2.21-.94-2.21-2.27v-2.72c0-1.32.82-2.26,2.07-2.26.48,0,.88.19,1.15.51v-2.96c0-.11.07-.18.19-.18h.81c.13,0,.19.07.19.18"/>
  <path class="cls-10" d="m90.24,173.88l-.97,1.29c-.06.08-.14.11-.24.11h-.57c-.15,0-.21-.1-.12-.22l.79-1.28c.04-.08.12-.13.22-.13h.78c.17,0,.21.11.11.23m-1.12,5.29c.64,0,1.01-.4,1.01-.98,0-.67-.39-1.1-1.03-1.1s-1.02.43-1.02,1.1v.98h1.03Zm-2.22,1.75v-2.72c.01-1.32.87-2.24,2.21-2.24,1.3-.01,2.22.91,2.22,2.19s-.89,2.1-2.2,2.1h-1.03v.73c0,.64.38,1.08,1.02,1.08.57,0,.94-.42.98-1.03.02-.13.08-.18.2-.18h.82c.11,0,.18.07.18.18-.07,1.29-.94,2.15-2.19,2.15s-2.19-.91-2.19-2.27"/>
  <path class="cls-10" d="m99.48,178.22v4.64c0,.13-.07.2-.18.2h-.81c-.13,0-.2-.07-.2-.2v-4.68c0-.65-.32-1.08-.9-1.08s-.92.43-.92,1.08v4.68c0,.13-.07.2-.18.2h-.8c-.13,0-.2-.07-.2-.2v-4.68c0-.65-.32-1.08-.9-1.08s-.92.43-.92,1.08v4.68c0,.13-.07.2-.2.2h-.79c-.12,0-.2-.07-.2-.2v-4.64c0-1.32.83-2.26,2.1-2.26.64,0,1.18.35,1.5.85.32-.5.85-.85,1.5-.85,1.26,0,2.08.94,2.08,2.26"/>
  <path class="cls-10" d="m100.82,182.86v-6.57c0-.11.07-.18.2-.18h.81c.12,0,.2.07.2.18v6.57c0,.13-.07.2-.2.2h-.81c-.12,0-.2-.07-.2-.2m-.11-8.33c0-.42.29-.72.71-.72s.73.3.73.72c0,.38-.32.7-.73.7s-.71-.3-.71-.7"/>
  <path class="cls-10" d="m106.33,180.98v-2.81c0-.65-.39-1.09-1.03-1.09s-1.02.44-1.02,1.09v2.81c0,.65.37,1.09,1.02,1.09s1.03-.44,1.03-1.09m-3.25-.04v-2.72c0-1.32.89-2.27,2.22-2.27s2.22.95,2.22,2.27v2.72c0,1.32-.87,2.26-2.22,2.26s-2.22-.94-2.22-2.26"/>
  <path class="cls-10" d="m108.78,182.86v-9.34c0-.11.07-.18.2-.18h.8c.12,0,.2.07.2.18v9.34c0,.13-.07.2-.2.2h-.8c-.12,0-.2-.07-.2-.2"/>
  <path class="cls-10" d="m114.29,180.98v-2.81c0-.65-.39-1.09-1.03-1.09s-1.01.44-1.01,1.09v2.81c0,.65.38,1.09,1.01,1.09s1.03-.44,1.03-1.09m-3.25-.04v-2.72c0-1.32.89-2.27,2.22-2.27s2.22.95,2.22,2.27v2.72c0,1.32-.87,2.26-2.22,2.26s-2.22-.94-2.22-2.26"/>
  <path class="cls-10" d="m119.75,180.65v-2.47c0-.65-.38-1.08-1.01-1.08s-1.03.43-1.03,1.08v2.47c0,.66.39,1.1,1.03,1.1s1.01-.44,1.01-1.1m1.19-2.43v5.5c0,1.38-.86,2.27-2.2,2.27s-2.16-.87-2.21-2.24c-.01-.12.05-.19.18-.19h.82c.11,0,.18.05.2.19.04.69.41,1.09,1.01,1.09.64,0,1.01-.4,1.01-1.08v-1.38c-.29.31-.68.49-1.11.49-1.24,0-2.12-.94-2.12-2.27v-2.39c0-1.32.89-2.26,2.22-2.26s2.2.94,2.2,2.26"/>
  <path class="cls-10" d="m122.28,182.86v-6.57c0-.11.07-.18.2-.18h.81c.12,0,.2.07.2.18v6.57c0,.13-.07.2-.2.2h-.81c-.12,0-.2-.07-.2-.2m-.11-8.33c0-.42.29-.72.71-.72s.72.3.72.72c0,.38-.32.7-.72.7s-.71-.3-.71-.7"/>
  <path class="cls-10" d="m126.76,179.17c.64,0,1.01-.4,1.01-.98,0-.67-.39-1.1-1.03-1.1s-1.01.43-1.01,1.1v.98h1.03Zm-2.22,1.75v-2.72c.01-1.32.87-2.24,2.21-2.24,1.3-.01,2.22.91,2.22,2.19s-.89,2.1-2.21,2.1h-1.03v.73c0,.64.38,1.08,1.01,1.08.57,0,.94-.42.99-1.03.01-.13.08-.18.19-.18h.82c.11,0,.18.07.18.18-.07,1.29-.94,2.15-2.19,2.15s-2.2-.91-2.2-2.27"/>
  <path class="cls-10" d="m2.22,193.06c.64,0,1.02-.4,1.02-.98,0-.67-.39-1.09-1.03-1.09s-1.01.43-1.01,1.09v.98h1.03Zm-2.22,1.75v-2.73c.02-1.32.87-2.23,2.21-2.23,1.3-.02,2.22.92,2.22,2.19s-.89,2.1-2.21,2.1h-1.03v.73c0,.64.37,1.08,1.01,1.08.57,0,.94-.42.99-1.03.01-.13.08-.18.19-.18h.82c.11,0,.18.07.18.18-.07,1.29-.95,2.15-2.2,2.15s-2.2-.9-2.2-2.26"/>
  <path class="cls-10" d="m8.74,196.04v.76c0,.11-.07.18-.19.18h-.21c-1.38,0-2.2-.93-2.2-2.46v-3.44h-.78c-.11,0-.18-.07-.18-.18v-.72c0-.11.07-.18.18-.18h.78v-1.79c0-.13.07-.2.19-.2h.81c.11,0,.18.07.18.2v1.79h1.07c.11,0,.18.07.18.18v.72c0,.11-.07.18-.18.18h-1.07v3.46c0,.87.36,1.32,1.07,1.32h.15c.12,0,.19.07.19.18"/>
  <path class="cls-10" d="m16.07,192.07c0-.66-.37-1.09-1.01-1.09s-1.03.43-1.03,1.09v2.8c0,.65.39,1.08,1.03,1.08s1.01-.43,1.01-1.08v-2.8Zm1.19-4.67v7.43c0,1.32-.89,2.26-2.21,2.26s-2.21-.94-2.21-2.26v-2.72c0-1.32.82-2.27,2.07-2.27.49,0,.87.19,1.15.51v-2.96c0-.11.07-.18.19-.18h.81c.12,0,.19.07.19.18"/>
  <path class="cls-10" d="m20.76,193.06c.64,0,1.01-.4,1.01-.98,0-.67-.39-1.09-1.03-1.09s-1.01.43-1.01,1.09v.98h1.02Zm-2.22,1.75v-2.73c.01-1.32.87-2.23,2.2-2.23,1.31-.02,2.23.92,2.23,2.19s-.89,2.1-2.21,2.1h-1.02v.73c0,.64.37,1.08,1.01,1.08.57,0,.95-.42.99-1.03.01-.13.08-.18.19-.18h.82c.11,0,.18.07.18.18-.07,1.29-.94,2.15-2.2,2.15s-2.19-.9-2.19-2.26"/>
  <path class="cls-10" d="m29.75,192.27c.72,0,1.15-.44,1.15-1.19v-1.5c0-.81-.43-1.33-1.11-1.33s-1.1.53-1.1,1.33v2.69h1.06Zm-2.31,4.47v-7.11c0-1.52.9-2.57,2.33-2.57s2.39,1.05,2.39,2.57v1.42c0,1.42-.93,2.39-2.37,2.39h-1.1v3.3c0,.12-.07.19-.18.19h-.89c-.11,0-.18-.07-.18-.19"/>
  <path class="cls-10" d="m32.93,196.74v-4.35c0-1.5.97-2.43,2.37-2.43h.52c.11,0,.18.07.18.2v.75c0,.11-.07.18-.18.18h-.5c-.72,0-1.19.45-1.19,1.21v4.44c0,.12-.07.19-.2.19h-.81c-.12,0-.19-.07-.19-.19"/>
  <path class="cls-10" d="m39.83,194.87v-2.81c0-.65-.39-1.09-1.03-1.09s-1.01.44-1.01,1.09v2.81c0,.65.38,1.1,1.01,1.1s1.03-.45,1.03-1.1m-3.25-.04v-2.72c0-1.32.89-2.26,2.22-2.26s2.22.94,2.22,2.26v2.72c0,1.32-.87,2.26-2.22,2.26s-2.22-.94-2.22-2.26"/>
  <path class="cls-10" d="m49.54,192.11v4.64c0,.12-.07.19-.18.19h-.81c-.12,0-.19-.07-.19-.19v-4.68c0-.66-.32-1.08-.9-1.08s-.92.43-.92,1.08v4.68c0,.12-.07.19-.18.19h-.81c-.12,0-.19-.07-.19-.19v-4.68c0-.66-.32-1.08-.9-1.08s-.92.43-.92,1.08v4.68c0,.12-.07.19-.19.19h-.79c-.12,0-.19-.07-.19-.19v-4.64c0-1.32.83-2.27,2.1-2.27.64,0,1.18.35,1.5.85.32-.5.84-.85,1.5-.85,1.26,0,2.08.94,2.08,2.27"/>
  <path class="cls-10" d="m54.11,194.87v-2.81c0-.65-.39-1.09-1.03-1.09s-1.01.44-1.01,1.09v2.81c0,.65.37,1.1,1.01,1.1s1.03-.45,1.03-1.1m-3.25-.04v-2.72c0-1.32.89-2.26,2.23-2.26s2.22.94,2.22,2.26v2.72c0,1.32-.87,2.26-2.22,2.26s-2.23-.94-2.23-2.26"/>
  <path class="cls-10" d="m59.71,196.04v.76c0,.11-.07.18-.19.18h-.21c-1.37,0-2.2-.93-2.2-2.46v-3.44h-.77c-.11,0-.18-.07-.18-.18v-.72c0-.11.07-.18.18-.18h.77v-1.79c0-.13.07-.2.19-.2h.81c.11,0,.18.07.18.2v1.79h1.07c.11,0,.18.07.18.18v.72c0,.11-.07.18-.18.18h-1.07v3.46c0,.87.36,1.32,1.07,1.32h.15c.13,0,.19.07.19.18"/>
  <path class="cls-10" d="m60.87,196.74v-6.57c0-.11.08-.18.2-.18h.81c.12,0,.2.07.2.18v6.57c0,.12-.07.19-.2.19h-.81c-.12,0-.2-.07-.2-.19m-.11-8.33c0-.42.29-.72.71-.72s.72.3.72.72c0,.38-.32.71-.72.71s-.71-.3-.71-.71"/>
  <path class="cls-10" d="m66.58,194.87v-2.81c0-.65-.39-1.09-1.03-1.09s-1.01.44-1.01,1.09v2.81c0,.65.38,1.1,1.01,1.1s1.03-.45,1.03-1.1m-3.25-.04v-2.72c0-1.32.89-2.26,2.22-2.26s2.22.94,2.22,2.26v2.72c0,1.32-.87,2.26-2.22,2.26s-2.22-.94-2.22-2.26"/>
  <path class="cls-10" d="m69.11,196.74v-4.64c0-1.32.87-2.27,2.17-2.27s2.17.94,2.17,2.27v4.64c0,.12-.07.19-.2.19h-.8c-.12,0-.2-.07-.2-.19v-4.68c0-.66-.36-1.1-.97-1.1s-.97.45-.97,1.1v4.68c0,.12-.07.19-.19.19h-.8c-.12,0-.19-.07-.19-.19"/>
  <path class="cls-10" d="m81.15,192.07c0-.66-.38-1.09-1.01-1.09s-1.03.43-1.03,1.09v2.8c0,.65.39,1.08,1.03,1.08s1.01-.43,1.01-1.08v-2.8Zm1.19-4.67v7.43c0,1.32-.89,2.26-2.21,2.26s-2.21-.94-2.21-2.26v-2.72c0-1.32.82-2.27,2.07-2.27.49,0,.88.19,1.15.51v-2.96c0-.11.07-.18.2-.18h.8c.12,0,.19.07.19.18"/>
  <path class="cls-10" d="m85.85,193.06c.64,0,1.01-.4,1.01-.98,0-.67-.39-1.09-1.03-1.09s-1.02.43-1.02,1.09v.98h1.03Zm-2.22,1.75v-2.73c.01-1.32.87-2.23,2.21-2.23,1.3-.02,2.22.92,2.22,2.19s-.89,2.1-2.2,2.1h-1.03v.73c0,.64.38,1.08,1.02,1.08.57,0,.94-.42.99-1.03.01-.13.08-.18.19-.18h.82c.11,0,.18.07.18.18-.07,1.29-.94,2.15-2.19,2.15s-2.19-.9-2.19-2.26"/>
  <path class="cls-10" d="m92.54,196.74v-9.34c0-.11.07-.18.19-.18h.81c.12,0,.19.07.19.18v9.34c0,.12-.07.19-.19.19h-.81c-.13,0-.19-.07-.19-.19"/>
  <path class="cls-10" d="m98.26,194.88v-1.01h-1c-.65,0-1.04.43-1.04.97,0,.67.39,1.1,1.04,1.1s1-.42,1-1.06m-3.24-.04c0-1.15.89-2.04,2.2-2.04h1.04v-.76c0-.63-.38-1.05-1-1.05-.59,0-.9.39-.94.96-.02.13-.07.17-.2.17h-.8c-.11,0-.18-.08-.18-.2.08-1.21.9-2.07,2.14-2.07,1.32,0,2.17.94,2.17,2.25v2.79c0,1.28-.83,2.19-2.17,2.19s-2.25-.93-2.25-2.24"/>
  <path class="cls-10" d="m103.68,194.34c0-.12.07-.2.2-.2h.88c.11,0,.18.07.19.18.03,1.05.43,1.58,1.18,1.58s1.12-.4,1.12-1.15c0-2.15-3.49-2.8-3.49-5.47,0-1.36.91-2.22,2.29-2.22s2.27,1.04,2.32,2.67c0,.11-.06.18-.18.18h-.88c-.11,0-.18-.07-.18-.18-.04-1.03-.42-1.5-1.07-1.5s-1.05.36-1.05,1.06c0,1.99,3.5,2.64,3.5,5.47,0,1.43-.96,2.34-2.4,2.34s-2.37-1.07-2.43-2.75"/>
  <path class="cls-10" d="m112.74,194.88v-1.01h-1c-.66,0-1.05.43-1.05.97,0,.67.39,1.1,1.05,1.1s1-.42,1-1.06m-3.24-.04c0-1.15.89-2.04,2.19-2.04h1.04v-.76c0-.63-.38-1.05-1-1.05-.58,0-.91.39-.95.96-.01.13-.07.17-.2.17h-.8c-.11,0-.18-.08-.18-.2.08-1.21.9-2.07,2.14-2.07,1.32,0,2.17.94,2.17,2.25v2.79c0,1.28-.84,2.19-2.17,2.19s-2.25-.93-2.25-2.24"/>
  <path class="cls-10" d="m115.23,196.74v-4.64c0-1.32.87-2.27,2.17-2.27s2.17.94,2.17,2.27v4.64c0,.12-.07.19-.19.19h-.81c-.12,0-.2-.07-.2-.19v-4.68c0-.66-.36-1.1-.97-1.1s-.97.45-.97,1.1v4.68c0,.12-.07.19-.2.19h-.8c-.12,0-.19-.07-.19-.19"/>
  <path class="cls-10" d="m123.99,196.04v.76c0,.11-.07.18-.2.18h-.21c-1.37,0-2.19-.93-2.19-2.46v-3.44h-.78c-.11,0-.18-.07-.18-.18v-.72c0-.11.07-.18.18-.18h.78v-1.79c0-.13.07-.2.19-.2h.81c.11,0,.18.07.18.2v1.79h1.07c.11,0,.18.07.18.18v.72c0,.11-.07.18-.18.18h-1.07v3.46c0,.87.36,1.32,1.07,1.32h.15c.12,0,.2.07.2.18"/>
  <path class="cls-10" d="m128.19,187.77l-.97,1.29c-.05.08-.14.11-.23.11h-.57c-.15,0-.21-.1-.12-.22l.79-1.28c.04-.09.12-.14.22-.14h.78c.17,0,.21.11.11.24m-1.12,5.29c.64,0,1.01-.4,1.01-.98,0-.67-.39-1.09-1.03-1.09s-1.01.43-1.01,1.09v.98h1.03Zm-2.22,1.75v-2.73c.01-1.32.87-2.23,2.21-2.23,1.31-.02,2.22.92,2.22,2.19s-.89,2.1-2.21,2.1h-1.03v.73c0,.64.38,1.08,1.01,1.08.57,0,.95-.42.99-1.03.01-.13.08-.18.2-.18h.82c.11,0,.18.07.18.18-.07,1.29-.94,2.15-2.19,2.15s-2.2-.9-2.2-2.26"/>
</svg>